<svg width="345" height="40" viewBox="0 0 345 40" fill="none" xmlns="http://www.w3.org/2000/svg">
<g clip-path="url(#clip0_5401_8818)">
<path d="M14.2105 39.9999H11.2281C4.38597 39.9999 0 35.7017 0 29.2982V11.4034C0 4.99991 4.47368 0.70166 11.2281 0.70166H14.2105C20.9649 0.70166 25.4386 4.99991 25.4386 11.4034V29.2982C25.4386 35.7017 20.9649 39.9999 14.2105 39.9999ZM18.5088 11.4034C18.5088 8.94727 16.6667 7.01745 14.2105 7.01745H11.2281C8.77193 7.01745 6.84211 8.94727 6.84211 11.4034V29.2982C6.84211 31.7543 8.77193 33.6841 11.2281 33.6841H14.2105C16.6667 33.6841 18.5088 31.842 18.5088 29.2982V11.4034Z" fill="#231F20"/>
<path d="M54.9123 32.7192C54.9123 33.3332 54.0351 35.0876 52.0175 37.1929C50.1754 39.035 47.6316 39.9999 44.2105 39.9999H41.2281C34.386 39.9999 30 35.7017 30 29.2982V11.4034C30 4.99991 34.4737 0.70166 41.2281 0.70166H44.2105C46.9298 0.70166 49.2105 1.3157 51.0526 2.7192C53.5088 4.47359 54.9123 7.19289 54.9123 7.89464C54.9123 8.1578 54.8246 8.24552 54.5614 8.42096L49.2982 11.0525C49.2105 11.1403 49.0351 11.1403 49.0351 11.1403C48.6842 11.1403 48.5088 10.7894 48.1579 10.0876C47.1053 8.07008 45.9649 7.01745 44.2105 7.01745H41.2281C38.7719 7.01745 36.8421 8.94727 36.8421 11.4034V29.2982C36.8421 31.7543 38.7719 33.6841 41.2281 33.6841H44.2105C45.9649 33.6841 47.0175 32.7192 48.0702 30.7894C48.4211 30.0876 48.6842 29.649 48.9474 29.649C49.0351 29.649 49.1228 29.649 49.2105 29.7367L54.4737 32.3683C54.7368 32.3683 54.9123 32.5438 54.9123 32.7192Z" fill="#231F20"/>
<path d="M84.8244 38.8595C84.8244 39.2104 84.5612 39.3859 84.1226 39.3859H77.9823C77.6314 39.3859 77.4559 39.2981 77.3682 38.9473L75.5261 32.6315C75.4384 32.3683 75.263 32.2806 74.9121 32.2806H66.2279C65.877 32.2806 65.7016 32.3683 65.6138 32.6315L63.7717 38.9473C63.684 39.2104 63.5086 39.3859 63.1577 39.3859H57.1051C56.6665 39.3859 56.4033 39.2104 56.4033 38.8595C56.5788 38.7718 67.8945 1.75427 67.8945 1.75427C67.9823 1.49111 68.1577 1.31567 68.5086 1.31567H72.8945C73.1577 1.31567 73.4209 1.40339 73.5086 1.75427C73.5086 1.75427 84.8244 38.7718 84.8244 38.8595ZM70.7016 13.8595C70.263 15.7016 67.8068 25.3508 67.8068 25.4385C67.8068 25.7894 68.07 25.9648 68.5086 25.9648H72.8945C73.3331 25.9648 73.5963 25.7894 73.5963 25.4385C73.5086 25.3508 71.0524 15.7016 70.7016 13.8595Z" fill="#231F20"/>
<path d="M95.0876 11.4034C95.0876 14.2104 97.8946 15.0876 102.105 17.0174C108.596 19.9999 111.579 23.3332 111.579 29.2982C111.579 35.7017 107.193 39.9999 100.351 39.9999H97.8946C94.4736 39.9999 91.842 39.035 89.9999 37.1929C87.9823 35.1753 87.1929 33.421 87.1929 32.8069C87.1929 32.7192 87.2806 32.5438 87.5437 32.3683L92.8069 29.7367C92.8946 29.649 92.9823 29.649 93.0701 29.649C93.5087 29.649 93.5964 30.2631 94.2104 31.4911C94.9122 32.7192 96.4034 33.6841 97.8069 33.6841H100.263C102.631 33.6841 104.649 31.7543 104.649 29.2982C104.649 26.228 102.105 25.1753 98.1578 23.3332C91.4911 20.0876 88.0701 17.3683 88.0701 11.4034C88.0701 4.99991 92.5437 0.70166 99.2981 0.70166H100.175C102.982 0.70166 105.175 1.3157 107.105 2.7192C109.474 4.38587 110.965 7.10517 110.965 7.89464C110.965 8.1578 110.877 8.24552 110.614 8.42096L105.351 11.0525C105.263 11.1403 105.088 11.1403 105.088 11.1403C104.824 11.1403 104.649 10.7894 104.298 10.2631C103.158 8.33324 102.105 7.28061 100.263 7.28061H99.3859C97.1052 7.01745 95.0876 8.94727 95.0876 11.4034Z" fill="#231F20"/>
<path d="M142.193 38.8595C142.193 39.2104 141.93 39.3859 141.491 39.3859H135.351C135 39.3859 134.825 39.2981 134.737 38.9473L132.895 32.6315C132.807 32.3683 132.632 32.2806 132.281 32.2806H123.597C123.246 32.2806 123.07 32.3683 122.982 32.6315L121.14 38.9473C121.053 39.2104 120.877 39.3859 120.526 39.3859H114.474C114.035 39.3859 113.772 39.2104 113.772 38.8595C114.035 38.7718 125.351 1.75427 125.351 1.75427C125.439 1.49111 125.614 1.31567 125.965 1.31567H130.351C130.614 1.31567 130.877 1.40339 130.965 1.75427C130.877 1.75427 142.193 38.7718 142.193 38.8595ZM128.158 13.8595C127.719 15.7016 125.263 25.3508 125.263 25.4385C125.263 25.7894 125.526 25.9648 125.965 25.9648H130.351C130.79 25.9648 131.053 25.7894 131.053 25.4385C130.965 25.3508 128.509 15.7016 128.158 13.8595Z" fill="#231F20"/>
<path d="M187.719 1.22803H150.789C150.351 1.22803 150.175 1.40347 150.175 1.84206V7.4561C150.175 7.89469 150.351 8.07013 150.789 8.07013H176.667L150.438 34.2982C150.175 34.5614 150.175 34.8245 150.438 35.1754L154.386 39.1228C154.649 39.3859 154.912 39.3859 155.263 39.1228L181.491 12.8947V38.7719C181.491 39.2105 181.667 39.3859 182.105 39.3859H187.719C188.158 39.3859 188.333 39.2105 188.333 38.7719V1.84206C188.245 1.40347 188.07 1.22803 187.719 1.22803Z" fill="#0099A8"/>
<path d="M213.772 0.70166H212.895V40.0876H213.772V0.70166Z" fill="#231F20"/>
<path d="M237.982 3.59644H239.21V15.2631H244.824V16.4035H237.895V3.59644H237.982Z" fill="#231F20"/>
<path d="M257.719 4.38598C258.772 5.00002 259.561 5.78949 260.175 6.7544C260.789 7.71932 261.053 8.85967 261.053 10C261.053 11.1404 260.789 12.2807 260.175 13.2456C259.561 14.2105 258.772 15 257.719 15.6141C256.667 16.2281 255.614 16.4912 254.386 16.4912C253.158 16.4912 252.018 16.2281 251.053 15.6141C250 15 249.21 14.2105 248.596 13.2456C247.982 12.2807 247.719 11.1404 247.719 10C247.719 8.85967 247.982 7.71932 248.596 6.7544C249.21 5.78949 250 5.00002 251.053 4.38598C252.105 3.77195 253.158 3.50879 254.386 3.50879C255.614 3.50879 256.754 3.77195 257.719 4.38598ZM251.754 5.35089C250.965 5.78949 250.263 6.49125 249.824 7.28072C249.298 8.07019 249.123 9.0351 249.123 10C249.123 10.9649 249.386 11.8421 249.824 12.7193C250.351 13.5088 250.965 14.2105 251.754 14.6491C252.544 15.0877 253.509 15.3509 254.474 15.3509C255.439 15.3509 256.316 15.0877 257.193 14.6491C257.982 14.2105 258.684 13.5088 259.123 12.7193C259.649 11.9298 259.825 10.9649 259.825 10C259.825 9.0351 259.561 8.15791 259.123 7.28072C258.596 6.49125 257.982 5.78949 257.193 5.35089C256.403 4.9123 255.439 4.64914 254.474 4.64914C253.421 4.64914 252.544 4.82458 251.754 5.35089Z" fill="#231F20"/>
<path d="M274.21 10.0878H275.351V14.7369C274.737 15.2632 274.035 15.7018 273.158 15.965C272.368 16.2282 271.491 16.4036 270.614 16.4036C269.386 16.4036 268.333 16.1404 267.281 15.5264C266.228 14.9124 265.438 14.1229 264.824 13.158C264.21 12.1931 263.947 11.0527 263.947 9.91237C263.947 8.77202 264.21 7.63167 264.824 6.66676C265.438 5.70184 266.228 4.91237 267.281 4.29834C268.333 3.6843 269.474 3.42114 270.614 3.42114C271.491 3.42114 272.281 3.59658 273.158 3.85974C273.947 4.1229 274.649 4.56149 275.263 5.17553L274.561 6.05272C274.035 5.52641 273.421 5.17553 272.719 4.91237C272.017 4.64921 271.316 4.56149 270.614 4.56149C269.649 4.56149 268.684 4.82465 267.895 5.26325C267.105 5.70184 266.403 6.4036 265.965 7.19307C265.439 7.98255 265.263 8.94746 265.263 9.91237C265.263 10.8773 265.526 11.8422 265.965 12.6317C266.491 13.4211 267.105 14.1229 267.982 14.5615C268.86 15.0001 269.737 15.2632 270.702 15.2632C271.316 15.2632 271.93 15.1755 272.544 15.0001C273.158 14.8247 273.684 14.4738 274.21 14.1229V10.0878Z" fill="#231F20"/>
<path d="M282.632 0L283.86 0.526316L281.579 2.36842L280.526 2.2807L282.632 0ZM280.614 3.59649H281.842V16.4035H280.614V3.59649Z" fill="#231F20"/>
<path d="M292.894 4.9123C292.28 4.73686 291.666 4.64914 291.14 4.64914C290.263 4.64914 289.561 4.82458 289.035 5.17546C288.508 5.52633 288.245 5.96493 288.245 6.57896C288.245 7.10528 288.421 7.54388 288.684 7.89475C288.947 8.24563 289.298 8.50879 289.736 8.68423C290.175 8.85967 290.789 9.12282 291.491 9.29826C292.368 9.56142 293.07 9.82458 293.596 10.0877C294.122 10.3509 294.561 10.7018 294.912 11.1404C295.263 11.579 295.438 12.2807 295.438 12.9825C295.438 13.6842 295.263 14.2983 294.824 14.8246C294.473 15.3509 293.859 15.7895 293.245 16.0526C292.543 16.3158 291.754 16.4912 290.877 16.4912C290 16.4912 289.122 16.3158 288.245 15.9649C287.368 15.6141 286.666 15.1755 286.052 14.5614L286.666 13.5088C287.28 14.0351 287.894 14.4737 288.684 14.8246C289.473 15.1755 290.175 15.2632 290.877 15.2632C291.842 15.2632 292.631 15.0877 293.158 14.6491C293.772 14.2105 294.035 13.6842 294.035 13.0702C294.035 12.5439 293.859 12.1053 293.596 11.7544C293.333 11.4035 292.982 11.1404 292.543 10.9649C292.105 10.7895 291.491 10.5263 290.789 10.3509C289.912 10.0877 289.21 9.82458 288.684 9.56142C288.158 9.29826 287.719 8.94739 287.368 8.50879C287.017 8.07019 286.842 7.45616 286.842 6.66668C286.842 6.05265 287.017 5.43861 287.368 5.00002C287.719 4.4737 288.245 4.12282 288.859 3.85967C289.649 3.59651 290.35 3.50879 291.228 3.50879C291.929 3.50879 292.631 3.59651 293.333 3.85967C294.035 4.0351 294.649 4.29826 295.175 4.64914L294.649 5.70177C294.122 5.35089 293.508 5.08774 292.894 4.9123Z" fill="#231F20"/>
<path d="M298.509 3.59644H308.246V4.73679H304.035V16.4035H302.807V4.73679H298.597V3.59644H298.509Z" fill="#231F20"/>
<path d="M312.018 3.59644H313.246V16.4035H312.018V3.59644Z" fill="#231F20"/>
<path d="M326.403 5.00009C325.702 4.73693 325 4.56149 324.298 4.56149C323.333 4.56149 322.368 4.82465 321.579 5.26325C320.789 5.70184 320.087 6.4036 319.649 7.19307C319.21 7.98255 318.947 8.94746 318.947 9.91237C318.947 10.8773 319.21 11.7545 319.649 12.6317C320.087 13.4211 320.789 14.1229 321.579 14.5615C322.368 15.0001 323.333 15.2632 324.298 15.2632C325 15.2632 325.702 15.0878 326.403 14.8247C327.105 14.5615 327.631 14.2106 328.158 13.6843L328.947 14.4738C328.333 15.0878 327.631 15.5264 326.754 15.8773C325.965 16.2282 325.087 16.4036 324.21 16.4036C322.982 16.4036 321.93 16.1404 320.877 15.5264C319.824 14.9124 319.035 14.1229 318.509 13.158C317.895 12.1931 317.631 11.0527 317.631 9.91237C317.631 8.77202 317.895 7.63167 318.509 6.66676C319.123 5.70184 319.912 4.91237 320.965 4.29834C322.017 3.6843 323.07 3.42114 324.298 3.42114C325.175 3.42114 325.965 3.59658 326.842 3.94746C327.631 4.29834 328.333 4.73693 328.947 5.26325L328.158 6.14044C327.719 5.70184 327.105 5.26325 326.403 5.00009Z" fill="#231F20"/>
<path d="M342.807 16.4035L341.316 12.9824H334.21L332.719 16.4035H331.403L337.193 3.59644H338.509L344.298 16.4035H342.807ZM334.737 11.842H340.877L337.719 4.91223L334.737 11.842Z" fill="#231F20"/>
<path d="M246.93 30.965H248.07V35.6141C247.456 36.1404 246.754 36.579 245.877 36.8422C245.088 37.1054 244.21 37.2808 243.333 37.2808C242.105 37.2808 241.052 37.0176 240 36.4036C238.947 35.7896 238.158 35.0001 237.544 34.0352C236.93 33.0703 236.667 31.9299 236.667 30.7896C236.667 29.6492 236.93 28.5089 237.544 27.544C238.158 26.579 238.947 25.7896 240 25.1755C241.052 24.5615 242.193 24.2983 243.333 24.2983C244.21 24.2983 245 24.4738 245.877 24.7369C246.667 25.0001 247.368 25.4387 247.982 26.0527L247.281 26.9299C246.754 26.4036 246.14 26.0527 245.438 25.7896C244.737 25.5264 244.035 25.4387 243.333 25.4387C242.368 25.4387 241.403 25.7018 240.614 26.1404C239.824 26.579 239.123 27.2808 238.684 28.0703C238.158 28.8597 237.982 29.8247 237.982 30.7896C237.982 31.7545 238.245 32.7194 238.684 33.5089C239.21 34.2983 239.824 35.0001 240.702 35.4387C241.579 35.8773 242.456 36.1404 243.421 36.1404C244.035 36.1404 244.649 36.0527 245.263 35.8773C245.877 35.7018 246.403 35.351 246.93 35.0001V30.965Z" fill="#231F20"/>
<path d="M253.421 24.4736H261.93V25.614H254.649V30.1754H261.14V31.3157H254.649V36.1403H262.193V37.2807H253.421V24.4736Z" fill="#231F20"/>
<path d="M276.14 24.4736H277.368V37.2807H276.053L268.158 26.4912V37.2807H266.93V24.4736H268.245L276.14 35.2631V24.4736Z" fill="#231F20"/>
<path d="M283.07 24.4736H291.579V25.614H284.298V30.1754H290.789V31.3157H284.298V36.1403H291.842V37.2807H283.07V24.4736Z" fill="#231F20"/>
<path d="M305 37.2807L302.281 33.1578C301.93 33.1578 301.579 33.1578 301.403 33.1578H297.895V37.2807H296.667V24.4736H301.403C302.982 24.4736 304.21 24.8245 305.088 25.614C305.965 26.3157 306.403 27.3684 306.403 28.7719C306.403 29.8245 306.14 30.7017 305.614 31.4035C305.088 32.1052 304.386 32.6315 303.421 32.8947L306.491 37.2807H305ZM301.316 32.0175C302.544 32.0175 303.509 31.7543 304.123 31.228C304.737 30.7017 305.088 29.9122 305.088 28.8596C305.088 27.807 304.737 27.0175 304.123 26.4912C303.509 25.9649 302.544 25.7017 301.316 25.7017H297.807V32.1052H301.316V32.0175Z" fill="#231F20"/>
<path d="M320.965 37.2807L319.473 33.8596H312.368L310.877 37.2807H309.561L315.351 24.4736H316.666L322.456 37.2807H320.965ZM312.807 32.7192H318.947L315.877 25.7894L312.807 32.7192Z" fill="#231F20"/>
<path d="M326.053 24.4736H327.281V36.1403H332.895V37.2807H325.965V24.4736H326.053Z" fill="#231F20"/>
</g>
<defs>
<clipPath id="clip0_5401_8818">
<rect width="344.211" height="40" fill="white"/>
</clipPath>
</defs>
</svg>
